# xmcd
#
# Track frame offsets:
#	182
#	15975
#	28170
#	39107
#	54652
#	65572
#	76250
#	86010
#	97810
#	110817
#	123790
#	132960
#	144825
#	155717
#	165557
#	175670
#	186447
#	199660
#	210412
#	222107
#
# Disc length: 3124
#
# Revision: 1
# Processed by: cddbd v1.5.1PL0 Copyright (c) Steve Scherf et al.
# Submitted via: CDex 1.40Beta9
# Normalized: r0:TDELIM( - )
#
DISCID=070c3214
DTITLE=Various Artist - The Country Box - CD 2
DYEAR=1992
DGENRE=Country
TTITLE0=Billie Jo Spears - Blanket on the ground
TTITLE1=Freddy Fender - Wasted days and wasted nights
TTITLE2=Hank Locklin - Send me the pillow
TTITLE3=Skeeter Davis - Blue Kentucky Girl
TTITLE4=Johnny Cash - I love you because
TTITLE5=Roger Miller - King of the road
TTITLE6=Willie Nelson - Let's pretend
TTITLE7=George Jones - White lightning
TTITLE8=Stonewall Jackson - I washed my hands in muddy water
TTITLE9=Kenny Rogers - Ruby don't take your love to town
TTITLE10=Bob Luman - Let's think about living
TTITLE11=Dolly Parton - Makin' believe
TTITLE12=Faron Young - Wind me up
TTITLE13=Johnny Cash - Ballad of teenage queen
TTITLE14=Patsy Cline - Seven lonely days
TTITLE15=Maxine Brown - I'm in the arms of a heartache
TTITLE16=Donna Fargo - Daddy
TTITLE17=Waylon Jennings - Sally was a good old girl
TTITLE18=Johnny Dollar - Big wheels sing for me
TTITLE19=Don Williams - There's never been a time
EXTD=YEAR: 1992 ID3G: 2
EXTT0=
EXTT1=
EXTT2=
EXTT3=
EXTT4=
EXTT5=
EXTT6=
EXTT7=
EXTT8=
EXTT9=
EXTT10=
EXTT11=
EXTT12=
EXTT13=
EXTT14=
EXTT15=
EXTT16=
EXTT17=
EXTT18=
EXTT19=
PLAYORDER=
